<svg class="site-logo desktop" version="1.1" id="Layer_1" xmlns="http://www.w3.org/2000/svg" xmlns:xlink="http://www.w3.org/1999/xlink" x="0px" y="0px" viewBox="0 0 804.6 215.5" style="enable-background:new 0 0 804.6 215.5;" xml:space="preserve">
	<polyline points="596.1,4.2 4.2,4.2 4.2,211.3 800.4,211.3 800.4,89 "></polyline>
	<g>
		<path d="M132.5,87.1l-5.5,4.2c-3-3.9-6.6-6.9-10.8-8.9c-4.2-2-8.8-3-13.9-3c-5.5,0-10.6,1.3-15.3,4C82.3,86,78.6,89.5,76.1,94c-2.6,4.5-3.9,9.5-3.9,15.1c0,8.4,2.9,15.5,8.7,21.1c5.8,5.6,13.1,8.5,21.9,8.5c9.7,0,17.8-3.8,24.3-11.4l5.5,4.1c-3.4,4.4-7.8,7.8-12.9,10.2c-5.2,2.4-10.9,3.6-17.3,3.6c-12.1,0-21.7-4-28.6-12.1c-5.9-6.8-8.8-15-8.8-24.6c0-10.1,3.6-18.6,10.7-25.6c7.1-6.9,16-10.4,26.7-10.4c6.5,0,12.3,1.3,17.5,3.8C124.9,78.9,129.2,82.5,132.5,87.1z"></path>
		<path d="M143.3,72.5h6.6v70.9h-6.6V72.5z"></path>
		<path d="M205.6,126.5l5.5,2.9c-1.8,3.6-3.9,6.5-6.3,8.7c-2.4,2.2-5.1,3.9-8,5c-3,1.1-6.4,1.7-10.1,1.7c-8.3,0-14.9-2.7-19.6-8.2c-4.7-5.5-7.1-11.7-7.1-18.6c0-6.5,2-12.3,6-17.4c5.1-6.5,11.8-9.7,20.3-9.7c8.7,0,15.7,3.3,20.9,9.9c3.7,4.7,5.6,10.5,5.6,17.5h-46c0.1,5.9,2,10.8,5.7,14.6c3.7,3.8,8.2,5.7,13.6,5.7c2.6,0,5.1-0.5,7.6-1.4c2.5-0.9,4.6-2.1,6.3-3.6C201.7,132.2,203.6,129.8,205.6,126.5z M205.6,112.7c-0.9-3.5-2.2-6.3-3.8-8.4c-1.7-2.1-3.9-3.8-6.7-5.1c-2.8-1.3-5.7-1.9-8.7-1.9c-5,0-9.3,1.6-12.9,4.8c-2.6,2.4-4.6,5.9-6,10.6H205.6z"></path>
		<path d="M275.1,92.3v51.2h-6.5v-8.8c-2.8,3.4-5.9,5.9-9.3,7.6c-3.4,1.7-7.2,2.5-11.3,2.5c-7.2,0-13.4-2.6-18.6-7.9c-5.1-5.3-7.7-11.6-7.7-19.2c0-7.4,2.6-13.7,7.8-18.9c5.2-5.2,11.4-7.9,18.7-7.9c4.2,0,8,0.9,11.4,2.7c3.4,1.8,6.4,4.5,9,8v-9.4H275.1z M248.8,97.3c-3.7,0-7,0.9-10.1,2.7c-3.1,1.8-5.6,4.3-7.4,7.6c-1.8,3.3-2.7,6.7-2.7,10.3c0,3.6,0.9,7,2.8,10.3c1.8,3.3,4.3,5.8,7.4,7.7c3.1,1.8,6.5,2.7,10,2.7c3.6,0,7-0.9,10.2-2.7c3.2-1.8,5.7-4.3,7.4-7.4c1.7-3.1,2.6-6.6,2.6-10.5c0-5.9-1.9-10.9-5.8-14.8C259.3,99.3,254.5,97.3,248.8,97.3z"></path>
		<path d="M286.8,92.3h6.6v9.2c2.6-3.5,5.6-6.1,8.7-7.9c3.2-1.7,6.7-2.6,10.4-2.6c3.8,0,7.2,1,10.2,2.9c3,1.9,5.1,4.6,6.6,7.9c1.4,3.3,2.1,8.4,2.1,15.4v26.3h-6.6V119c0-5.9-0.2-9.8-0.7-11.8c-0.8-3.4-2.2-5.9-4.4-7.6c-2.2-1.7-5-2.6-8.5-2.6c-4,0-7.6,1.3-10.7,4c-3.2,2.6-5.2,5.9-6.2,9.8c-0.6,2.5-0.9,7.2-0.9,13.9v18.8h-6.6V92.3z"></path>
		<path d="M371.3,97.9l-4.2,4.4c-3.5-3.4-7-5.1-10.3-5.1c-2.1,0-4,0.7-5.5,2.1c-1.5,1.4-2.3,3.1-2.3,4.9c0,1.7,0.6,3.2,1.9,4.7c1.3,1.5,3.9,3.3,7.9,5.4c4.9,2.5,8.2,5,10,7.3c1.7,2.4,2.6,5.1,2.6,8c0,4.2-1.5,7.8-4.4,10.7c-3,2.9-6.6,4.4-11.1,4.4c-3,0-5.8-0.6-8.5-1.9c-2.7-1.3-4.9-3.1-6.7-5.3l4.1-4.7c3.4,3.8,6.9,5.7,10.7,5.7c2.6,0,4.9-0.8,6.7-2.5c1.9-1.7,2.8-3.7,2.8-6c0-1.9-0.6-3.6-1.8-5c-1.2-1.4-4-3.3-8.3-5.5c-4.6-2.4-7.8-4.7-9.4-7.1s-2.5-5-2.5-7.9c0-3.9,1.3-7.1,4-9.7c2.7-2.6,6-3.9,10.1-3.9C361.8,91,366.5,93.3,371.3,97.9z"></path>
		<path d="M426.1,126.5l5.5,2.9c-1.8,3.6-3.9,6.5-6.3,8.7c-2.4,2.2-5.1,3.9-8,5c-3,1.1-6.4,1.7-10.1,1.7c-8.3,0-14.9-2.7-19.6-8.2c-4.7-5.5-7.1-11.7-7.1-18.6c0-6.5,2-12.3,6-17.4c5.1-6.5,11.8-9.7,20.3-9.7c8.7,0,15.7,3.3,20.9,9.9c3.7,4.7,5.6,10.5,5.6,17.5h-46c0.1,5.9,2,10.8,5.7,14.6c3.7,3.8,8.2,5.7,13.6,5.7c2.6,0,5.1-0.5,7.6-1.4c2.5-0.9,4.6-2.1,6.3-3.6C422.2,132.2,424,129.8,426.1,126.5z M426.1,112.7c-0.9-3.5-2.2-6.3-3.8-8.4c-1.7-2.1-3.9-3.8-6.7-5.1c-2.8-1.3-5.7-1.9-8.7-1.9c-5,0-9.3,1.6-12.9,4.8c-2.6,2.4-4.6,5.9-6,10.6H426.1z"></path>
	</g>
	<g>
		<path d="M549.6,87.1l-5.5,4.2c-3-3.9-6.6-6.9-10.8-8.9c-4.2-2-8.8-3-13.9-3c-5.5,0-10.6,1.3-15.3,4c-4.7,2.7-8.3,6.2-10.9,10.7c-2.6,4.5-3.9,9.5-3.9,15.1c0,8.4,2.9,15.5,8.7,21.1c5.8,5.6,13.1,8.5,21.9,8.5c9.7,0,17.8-3.8,24.3-11.4l5.5,4.1c-3.4,4.4-7.8,7.8-12.9,10.2c-5.2,2.4-10.9,3.6-17.3,3.6c-12.1,0-21.7-4-28.6-12.1c-5.9-6.8-8.8-15-8.8-24.6c0-10.1,3.6-18.6,10.7-25.6c7.1-6.9,16-10.4,26.7-10.4c6.5,0,12.3,1.3,17.5,3.8C542,78.9,546.2,82.5,549.6,87.1z"></path>
		<path d="M561.4,72.5h6.6v70.9h-6.6V72.5z"></path>
		<path d="M582.9,71.2c1.5,0,2.8,0.5,3.8,1.6c1.1,1.1,1.6,2.4,1.6,3.9c0,1.5-0.5,2.7-1.6,3.8c-1.1,1.1-2.3,1.6-3.8,1.6c-1.5,0-2.7-0.5-3.8-1.6c-1.1-1.1-1.6-2.3-1.6-3.8c0-1.5,0.5-2.8,1.6-3.9C580.2,71.8,581.4,71.2,582.9,71.2z M579.6,92.3h6.6v51.2h-6.6V92.3z"></path>
		<path d="M597.8,92.3h6.6v9.2c2.6-3.5,5.6-6.1,8.7-7.9c3.2-1.7,6.7-2.6,10.4-2.6c3.8,0,7.2,1,10.2,2.9c3,1.9,5.1,4.6,6.6,7.9c1.4,3.3,2.1,8.4,2.1,15.4v26.3h-6.6V119c0-5.9-0.2-9.8-0.7-11.8c-0.8-3.4-2.2-5.9-4.4-7.6c-2.2-1.7-5-2.6-8.5-2.6c-4,0-7.6,1.3-10.7,4c-3.2,2.6-5.2,5.9-6.2,9.8c-0.6,2.5-0.9,7.2-0.9,13.9v18.8h-6.6V92.3z"></path>
		<path d="M656.8,71.2c1.5,0,2.8,0.5,3.8,1.6c1.1,1.1,1.6,2.4,1.6,3.9c0,1.5-0.5,2.7-1.6,3.8c-1.1,1.1-2.3,1.6-3.8,1.6c-1.5,0-2.7-0.5-3.8-1.6c-1.1-1.1-1.6-2.3-1.6-3.8c0-1.5,0.5-2.8,1.6-3.9C654.1,71.8,655.4,71.2,656.8,71.2z M653.6,92.3h6.6v51.2h-6.6V92.3z"></path>
		<path d="M722.5,102.9l-5.2,3.2c-4.5-6-10.7-9-18.5-9c-6.2,0-11.4,2-15.5,6c-4.1,4-6.2,8.9-6.2,14.6c0,3.7,0.9,7.2,2.8,10.5c1.9,3.3,4.5,5.8,7.8,7.7c3.3,1.8,7,2.7,11.1,2.7c7.5,0,13.7-3,18.4-9l5.2,3.4c-2.4,3.7-5.7,6.5-9.9,8.6c-4.1,2-8.8,3-14.1,3c-8.1,0-14.8-2.6-20.1-7.7c-5.3-5.1-8-11.4-8-18.8c0-5,1.2-9.6,3.7-13.8c2.5-4.2,5.9-7.6,10.3-9.9c4.4-2.4,9.2-3.6,14.6-3.6c3.4,0,6.7,0.5,9.8,1.6c3.2,1,5.8,2.4,8,4C719.1,98.2,720.9,100.3,722.5,102.9z"></path>
	</g>
</svg>