<svg width="50" height="50" viewBox="0 0 50 50" fill="none" xmlns="http://www.w3.org/2000/svg">
<path d="M18.3721 36.4995H13.3964V20.4763H18.3721V36.4995ZM15.8816 18.2905C14.2905 18.2905 13 16.9727 13 15.3816C13 14.6174 13.3036 13.8844 13.844 13.344C14.3844 12.8036 15.1174 12.5 15.8816 12.5C16.6459 12.5 17.3788 12.8036 17.9192 13.344C18.4596 13.8844 18.7632 14.6174 18.7632 15.3816C18.7632 16.9727 17.4721 18.2905 15.8816 18.2905ZM36.9946 36.4995H32.0296V28.6995C32.0296 26.8405 31.9921 24.4566 29.4427 24.4566C26.8557 24.4566 26.4593 26.4763 26.4593 28.5655V36.4995H21.4889V20.4763H26.2611V22.662H26.3307C26.995 21.403 28.6177 20.0745 31.0386 20.0745C36.0743 20.0745 37 23.3905 37 27.6977V36.4995H36.9946Z" fill="#F3F6F7"/>
</svg>
