<svg width="72" height="90" viewBox="0 0 72 90" fill="none" xmlns="http://www.w3.org/2000/svg">
<g clip-path="url(#clip0_724_6238)">
<rect width="72" height="90" fill="#F9FAFA"/>
<g clip-path="url(#clip1_724_6238)">
<rect width="108" height="90" fill="#F9FAFA"/>
<g clip-path="url(#clip2_724_6238)">
<g clip-path="url(#clip3_724_6238)">
<path d="M36 9C36 13.9706 31.9706 18 27 18V18C22.0294 18 18 13.9706 18 9L18 -1.57361e-06L36 0L36 9Z" fill="#F9FAFA"/>
</g>
<g clip-path="url(#clip4_724_6238)">
<path d="M18 9C18 13.9706 13.9706 18 9 18V18C4.02944 18 3.52265e-07 13.9706 7.86805e-07 9L1.57361e-06 -1.57361e-06L18 0L18 9Z" fill="#F9FAFA"/>
</g>
<g clip-path="url(#clip5_724_6238)">
<path d="M9 9C9 4.02944 13.0294 0 18 0V0C22.9706 0 27 4.02944 27 9V18H9V9Z" fill="#F3F6F7"/>
</g>
<g clip-path="url(#clip6_724_6238)">
<path d="M27 9C27 4.02944 22.9706 0 18 0V0C13.0294 0 9 4.02944 9 9V18H27V9Z" fill="#F9FAFA"/>
</g>
<g clip-path="url(#clip7_724_6238)">
<path d="M9 9C9 4.02944 4.97056 0 0 0V0C-4.97056 0 -9 4.02944 -9 9V18H9V9Z" fill="#F9FAFA"/>
</g>
<g clip-path="url(#clip8_724_6238)">
<path d="M27 9C27 4.02944 31.0294 0 36 0V0C40.9706 0 45 4.02944 45 9V18H27V9Z" fill="#F3F6F7"/>
</g>
<g clip-path="url(#clip9_724_6238)">
<path d="M36 27C36 31.9706 31.9706 36 27 36V36C22.0294 36 18 31.9706 18 27L18 18L36 18L36 27Z" fill="#F3F6F7"/>
</g>
<g clip-path="url(#clip10_724_6238)">
<path d="M18 9C18 13.9706 22.0294 18 27 18V18C31.9706 18 36 13.9706 36 9L36 1.57361e-06L18 0L18 9Z" fill="#F0F2F2"/>
</g>
<g clip-path="url(#clip11_724_6238)">
<path d="M18 27C18 31.9706 22.0294 36 27 36V36C31.9706 36 36 31.9706 36 27L36 18L18 18L18 27Z" fill="#F9FAFA"/>
</g>
<g clip-path="url(#clip12_724_6238)">
<path d="M18 27C18 31.9706 13.9706 36 9 36V36C4.02944 36 3.52265e-07 31.9706 7.86805e-07 27L1.57361e-06 18L18 18L18 27Z" fill="#F3F6F7"/>
</g>
<g clip-path="url(#clip13_724_6238)">
<path d="M7.86805e-07 9C3.52265e-07 13.9706 4.02944 18 9 18V18C13.9706 18 18 13.9706 18 9L18 1.57361e-06L1.57361e-06 0L7.86805e-07 9Z" fill="#F0F2F2"/>
</g>
<g clip-path="url(#clip14_724_6238)">
<path d="M7.86805e-07 27C3.52265e-07 31.9706 4.02944 36 9 36V36C13.9706 36 18 31.9706 18 27L18 18L1.57361e-06 18L7.86805e-07 27Z" fill="#F9FAFA"/>
</g>
</g>
<g clip-path="url(#clip15_724_6238)">
<g clip-path="url(#clip16_724_6238)">
<path d="M9 81C9 76.0294 13.0294 72 18 72V72C22.9706 72 27 76.0294 27 81V90H9V81Z" fill="#F9FAFA"/>
</g>
<g clip-path="url(#clip17_724_6238)">
<path d="M27 81C27 76.0294 22.9706 72 18 72V72C13.0294 72 9 76.0294 9 81V90H27V81Z" fill="#F0F2F2"/>
</g>
<g clip-path="url(#clip18_724_6238)">
<path d="M9 81C9 76.0294 4.97056 72 0 72V72C-4.97056 72 -9 76.0294 -9 81V90H9V81Z" fill="#F0F2F2"/>
</g>
<g clip-path="url(#clip19_724_6238)">
<path d="M27 81C27 76.0294 31.0294 72 36 72V72C40.9706 72 45 76.0294 45 81V90H27V81Z" fill="#F9FAFA"/>
</g>
</g>
<g clip-path="url(#clip20_724_6238)">
<g clip-path="url(#clip21_724_6238)">
<path d="M36 54C36 58.9706 31.9706 63 27 63V63C22.0294 63 18 58.9706 18 54L18 45L36 45L36 54Z" fill="#F9FAFA"/>
</g>
<g clip-path="url(#clip22_724_6238)">
<path d="M18 54C18 58.9706 13.9706 63 9 63V63C4.02944 63 3.52265e-07 58.9706 7.86805e-07 54L1.57361e-06 45L18 45L18 54Z" fill="#F9FAFA"/>
</g>
<g clip-path="url(#clip23_724_6238)">
<path d="M9 54C9 49.0294 13.0294 45 18 45V45C22.9706 45 27 49.0294 27 54V63H9V54Z" fill="#F3F6F7"/>
</g>
<g clip-path="url(#clip24_724_6238)">
<path d="M9 36C9 31.0294 13.0294 27 18 27V27C22.9706 27 27 31.0294 27 36V45H9V36Z" fill="#F9FAFA"/>
</g>
<g clip-path="url(#clip25_724_6238)">
<path d="M27 36C27 31.0294 22.9706 27 18 27V27C13.0294 27 9 31.0294 9 36V45H27V36Z" fill="#F0F2F2"/>
</g>
<g clip-path="url(#clip26_724_6238)">
<path d="M27 54C27 49.0294 22.9706 45 18 45V45C13.0294 45 9 49.0294 9 54V63H27V54Z" fill="#F9FAFA"/>
</g>
<g clip-path="url(#clip27_724_6238)">
<path d="M9 36C9 31.0294 4.97056 27 0 27V27C-4.97056 27 -9 31.0294 -9 36V45H9V36Z" fill="#F0F2F2"/>
</g>
<g clip-path="url(#clip28_724_6238)">
<path d="M9 54C9 49.0294 4.97056 45 0 45V45C-4.97056 45 -9 49.0294 -9 54V63H9V54Z" fill="#F9FAFA"/>
</g>
<g clip-path="url(#clip29_724_6238)">
<path d="M27 54C27 49.0294 31.0294 45 36 45V45C40.9706 45 45 49.0294 45 54V63H27V54Z" fill="#F3F6F7"/>
</g>
<g clip-path="url(#clip30_724_6238)">
<path d="M27 36C27 31.0294 31.0294 27 36 27V27C40.9706 27 45 31.0294 45 36V45H27V36Z" fill="#F9FAFA"/>
</g>
<g clip-path="url(#clip31_724_6238)">
<path d="M36 72C36 76.9706 31.9706 81 27 81V81C22.0294 81 18 76.9706 18 72L18 63L36 63L36 72Z" fill="#F3F6F7"/>
</g>
<g clip-path="url(#clip32_724_6238)">
<path d="M18 54C18 58.9706 22.0294 63 27 63V63C31.9706 63 36 58.9706 36 54L36 45L18 45L18 54Z" fill="#F0F2F2"/>
<path d="M27 54C27 49.0294 22.9706 45 18 45V45C13.0294 45 9 49.0294 9 54L9 63L27 63L27 54Z" fill="#F9FAFA"/>
</g>
<g clip-path="url(#clip33_724_6238)">
<path d="M18 72C18 76.9706 22.0294 81 27 81V81C31.9706 81 36 76.9706 36 72L36 63L18 63L18 72Z" fill="#F9FAFA"/>
</g>
<g clip-path="url(#clip34_724_6238)">
<path d="M18 72C18 76.9706 13.9706 81 9 81V81C4.02944 81 3.52265e-07 76.9706 7.86805e-07 72L1.57361e-06 63L18 63L18 72Z" fill="#F3F6F7"/>
</g>
<g clip-path="url(#clip35_724_6238)">
<path d="M7.86805e-07 54C3.52265e-07 58.9706 4.02944 63 9 63V63C13.9706 63 18 58.9706 18 54L18 45L1.57361e-06 45L7.86805e-07 54Z" fill="#F0F2F2"/>
</g>
<g clip-path="url(#clip36_724_6238)">
<path d="M7.86805e-07 72C3.52265e-07 76.9706 4.02944 81 9 81V81C13.9706 81 18 76.9706 18 72L18 63L1.57361e-06 63L7.86805e-07 72Z" fill="#F9FAFA"/>
</g>
</g>
<g clip-path="url(#clip37_724_6238)">
<g clip-path="url(#clip38_724_6238)">
<path d="M72 9C72 13.9706 67.9706 18 63 18V18C58.0294 18 54 13.9706 54 9L54 -1.57361e-06L72 0L72 9Z" fill="#F9FAFA"/>
</g>
<g clip-path="url(#clip39_724_6238)">
<path d="M54 9C54 13.9706 49.9706 18 45 18V18C40.0294 18 36 13.9706 36 9L36 -1.57361e-06L54 0L54 9Z" fill="#F9FAFA"/>
</g>
<g clip-path="url(#clip40_724_6238)">
<path d="M45 9C45 4.02944 49.0294 0 54 0V0C58.9706 0 63 4.02944 63 9V18H45V9Z" fill="#F3F6F7"/>
</g>
<g clip-path="url(#clip41_724_6238)">
<path d="M63 9C63 4.02944 58.9706 0 54 0V0C49.0294 0 45 4.02944 45 9V18H63V9Z" fill="#F9FAFA"/>
</g>
<g clip-path="url(#clip42_724_6238)">
<path d="M45 9C45 4.02944 40.9706 0 36 0V0C31.0294 0 27 4.02944 27 9V18H45V9Z" fill="#F9FAFA"/>
</g>
<g clip-path="url(#clip43_724_6238)">
<path d="M63 9C63 4.02944 67.0294 0 72 0V0C76.9706 0 81 4.02944 81 9V18H63V9Z" fill="#F3F6F7"/>
</g>
<g clip-path="url(#clip44_724_6238)">
<path d="M72 27C72 31.9706 67.9706 36 63 36V36C58.0294 36 54 31.9706 54 27L54 18L72 18L72 27Z" fill="#F3F6F7"/>
</g>
<g clip-path="url(#clip45_724_6238)">
<path d="M54 9C54 13.9706 58.0294 18 63 18V18C67.9706 18 72 13.9706 72 9L72 1.57361e-06L54 0L54 9Z" fill="#F0F2F2"/>
</g>
<g clip-path="url(#clip46_724_6238)">
<path d="M54 27C54 31.9706 58.0294 36 63 36V36C67.9706 36 72 31.9706 72 27L72 18L54 18L54 27Z" fill="#F9FAFA"/>
</g>
<g clip-path="url(#clip47_724_6238)">
<path d="M54 27C54 31.9706 49.9706 36 45 36V36C40.0294 36 36 31.9706 36 27L36 18L54 18L54 27Z" fill="#F3F6F7"/>
</g>
<g clip-path="url(#clip48_724_6238)">
<path d="M36 9C36 13.9706 40.0294 18 45 18V18C49.9706 18 54 13.9706 54 9L54 1.57361e-06L36 0L36 9Z" fill="#F0F2F2"/>
</g>
<g clip-path="url(#clip49_724_6238)">
<path d="M36 27C36 31.9706 40.0294 36 45 36V36C49.9706 36 54 31.9706 54 27L54 18L36 18L36 27Z" fill="#F9FAFA"/>
</g>
</g>
<g clip-path="url(#clip50_724_6238)">
<g clip-path="url(#clip51_724_6238)">
<path d="M45 81C45 76.0294 49.0294 72 54 72V72C58.9706 72 63 76.0294 63 81V90H45V81Z" fill="#F9FAFA"/>
</g>
<g clip-path="url(#clip52_724_6238)">
<path d="M63 81C63 76.0294 58.9706 72 54 72V72C49.0294 72 45 76.0294 45 81V90H63V81Z" fill="#F0F2F2"/>
</g>
<g clip-path="url(#clip53_724_6238)">
<path d="M45 81C45 76.0294 40.9706 72 36 72V72C31.0294 72 27 76.0294 27 81V90H45V81Z" fill="#F0F2F2"/>
</g>
<g clip-path="url(#clip54_724_6238)">
<path d="M63 81C63 76.0294 67.0294 72 72 72V72C76.9706 72 81 76.0294 81 81V90H63V81Z" fill="#F9FAFA"/>
</g>
</g>
<g clip-path="url(#clip55_724_6238)">
<g clip-path="url(#clip56_724_6238)">
<path d="M72 54C72 58.9706 67.9706 63 63 63V63C58.0294 63 54 58.9706 54 54L54 45L72 45L72 54Z" fill="#F9FAFA"/>
</g>
<g clip-path="url(#clip57_724_6238)">
<path d="M54 54C54 58.9706 49.9706 63 45 63V63C40.0294 63 36 58.9706 36 54L36 45L54 45L54 54Z" fill="#F9FAFA"/>
</g>
<g clip-path="url(#clip58_724_6238)">
<path d="M45 54C45 49.0294 49.0294 45 54 45V45C58.9706 45 63 49.0294 63 54V63H45V54Z" fill="#F3F6F7"/>
</g>
<g clip-path="url(#clip59_724_6238)">
<path d="M45 36C45 31.0294 49.0294 27 54 27V27C58.9706 27 63 31.0294 63 36V45H45V36Z" fill="#F9FAFA"/>
</g>
<g clip-path="url(#clip60_724_6238)">
<path d="M63 36C63 31.0294 58.9706 27 54 27V27C49.0294 27 45 31.0294 45 36V45H63V36Z" fill="#F0F2F2"/>
</g>
<g clip-path="url(#clip61_724_6238)">
<path d="M63 54C63 49.0294 58.9706 45 54 45V45C49.0294 45 45 49.0294 45 54V63H63V54Z" fill="#F9FAFA"/>
</g>
<g clip-path="url(#clip62_724_6238)">
<path d="M45 36C45 31.0294 40.9706 27 36 27V27C31.0294 27 27 31.0294 27 36V45H45V36Z" fill="#F0F2F2"/>
</g>
<g clip-path="url(#clip63_724_6238)">
<path d="M45 54C45 49.0294 40.9706 45 36 45V45C31.0294 45 27 49.0294 27 54V63H45V54Z" fill="#F9FAFA"/>
</g>
<g clip-path="url(#clip64_724_6238)">
<path d="M63 54C63 49.0294 67.0294 45 72 45V45C76.9706 45 81 49.0294 81 54V63H63V54Z" fill="#F3F6F7"/>
</g>
<g clip-path="url(#clip65_724_6238)">
<path d="M63 36C63 31.0294 67.0294 27 72 27V27C76.9706 27 81 31.0294 81 36V45H63V36Z" fill="#F9FAFA"/>
</g>
<g clip-path="url(#clip66_724_6238)">
<path d="M72 72C72 76.9706 67.9706 81 63 81V81C58.0294 81 54 76.9706 54 72L54 63L72 63L72 72Z" fill="#F3F6F7"/>
</g>
<g clip-path="url(#clip67_724_6238)">
<g clip-path="url(#clip68_724_6238)">
<path d="M54 54C54 58.9706 58.0294 63 63 63V63C67.9706 63 72 58.9706 72 54L72 45L54 45L54 54Z" fill="#F0F2F2"/>
<path d="M63 54C63 49.0294 58.9706 45 54 45V45C49.0294 45 45 49.0294 45 54L45 63L63 63L63 54Z" fill="#F9FAFA"/>
</g>
</g>
<g clip-path="url(#clip69_724_6238)">
<path d="M54 72C54 76.9706 58.0294 81 63 81V81C67.9706 81 72 76.9706 72 72L72 63L54 63L54 72Z" fill="#F9FAFA"/>
</g>
<g clip-path="url(#clip70_724_6238)">
<path d="M54 72C54 76.9706 49.9706 81 45 81V81C40.0294 81 36 76.9706 36 72L36 63L54 63L54 72Z" fill="#F3F6F7"/>
</g>
<g clip-path="url(#clip71_724_6238)">
<path d="M36 54C36 58.9706 40.0294 63 45 63V63C49.9706 63 54 58.9706 54 54L54 45L36 45L36 54Z" fill="#F0F2F2"/>
</g>
<g clip-path="url(#clip72_724_6238)">
<path d="M36 72C36 76.9706 40.0294 81 45 81V81C49.9706 81 54 76.9706 54 72L54 63L36 63L36 72Z" fill="#F9FAFA"/>
</g>
</g>
</g>
</g>
<defs>
<clipPath id="clip0_724_6238">
<rect width="72" height="90" fill="white"/>
</clipPath>
<clipPath id="clip1_724_6238">
<rect width="108" height="90" fill="white"/>
</clipPath>
<clipPath id="clip2_724_6238">
<rect width="36" height="54" fill="white" transform="translate(0 -18)"/>
</clipPath>
<clipPath id="clip3_724_6238">
<rect width="9" height="18" fill="white" transform="translate(36 18) rotate(-180)"/>
</clipPath>
<clipPath id="clip4_724_6238">
<rect width="9" height="18" fill="white" transform="translate(18 18) rotate(-180)"/>
</clipPath>
<clipPath id="clip5_724_6238">
<rect width="9" height="18" fill="white" transform="translate(9)"/>
</clipPath>
<clipPath id="clip6_724_6238">
<rect width="9" height="18" fill="white" transform="matrix(-1 0 0 1 27 0)"/>
</clipPath>
<clipPath id="clip7_724_6238">
<rect width="9" height="18" fill="white" transform="matrix(-1 0 0 1 9 0)"/>
</clipPath>
<clipPath id="clip8_724_6238">
<rect width="9" height="18" fill="white" transform="translate(27)"/>
</clipPath>
<clipPath id="clip9_724_6238">
<rect width="9" height="18" fill="white" transform="translate(36 36) rotate(-180)"/>
</clipPath>
<clipPath id="clip10_724_6238">
<rect width="9" height="18" fill="white" transform="matrix(1 8.74228e-08 8.74228e-08 -1 18 18)"/>
</clipPath>
<clipPath id="clip11_724_6238">
<rect width="9" height="18" fill="white" transform="matrix(1 8.74228e-08 8.74228e-08 -1 18 36)"/>
</clipPath>
<clipPath id="clip12_724_6238">
<rect width="9" height="18" fill="white" transform="translate(18 36) rotate(-180)"/>
</clipPath>
<clipPath id="clip13_724_6238">
<rect width="9" height="18" fill="white" transform="matrix(1 8.74228e-08 8.74228e-08 -1 0 18)"/>
</clipPath>
<clipPath id="clip14_724_6238">
<rect width="9" height="18" fill="white" transform="matrix(1 8.74228e-08 8.74228e-08 -1 0 36)"/>
</clipPath>
<clipPath id="clip15_724_6238">
<rect width="36" height="54" fill="white" transform="translate(0 72)"/>
</clipPath>
<clipPath id="clip16_724_6238">
<rect width="9" height="18" fill="white" transform="translate(9 72)"/>
</clipPath>
<clipPath id="clip17_724_6238">
<rect width="9" height="18" fill="white" transform="matrix(-1 0 0 1 27 72)"/>
</clipPath>
<clipPath id="clip18_724_6238">
<rect width="9" height="18" fill="white" transform="matrix(-1 0 0 1 9 72)"/>
</clipPath>
<clipPath id="clip19_724_6238">
<rect width="9" height="18" fill="white" transform="translate(27 72)"/>
</clipPath>
<clipPath id="clip20_724_6238">
<rect width="36" height="54" fill="white" transform="translate(0 27)"/>
</clipPath>
<clipPath id="clip21_724_6238">
<rect width="9" height="18" fill="white" transform="translate(36 63) rotate(-180)"/>
</clipPath>
<clipPath id="clip22_724_6238">
<rect width="9" height="18" fill="white" transform="translate(18 63) rotate(-180)"/>
</clipPath>
<clipPath id="clip23_724_6238">
<rect width="9" height="18" fill="white" transform="translate(9 45)"/>
</clipPath>
<clipPath id="clip24_724_6238">
<rect width="9" height="18" fill="white" transform="translate(9 27)"/>
</clipPath>
<clipPath id="clip25_724_6238">
<rect width="9" height="18" fill="white" transform="matrix(-1 0 0 1 27 27)"/>
</clipPath>
<clipPath id="clip26_724_6238">
<rect width="9" height="18" fill="white" transform="matrix(-1 0 0 1 27 45)"/>
</clipPath>
<clipPath id="clip27_724_6238">
<rect width="9" height="18" fill="white" transform="matrix(-1 0 0 1 9 27)"/>
</clipPath>
<clipPath id="clip28_724_6238">
<rect width="9" height="18" fill="white" transform="matrix(-1 0 0 1 9 45)"/>
</clipPath>
<clipPath id="clip29_724_6238">
<rect width="9" height="18" fill="white" transform="translate(27 45)"/>
</clipPath>
<clipPath id="clip30_724_6238">
<rect width="9" height="18" fill="white" transform="translate(27 27)"/>
</clipPath>
<clipPath id="clip31_724_6238">
<rect width="9" height="18" fill="white" transform="translate(36 81) rotate(-180)"/>
</clipPath>
<clipPath id="clip32_724_6238">
<rect width="9" height="18" fill="white" transform="matrix(1 8.74228e-08 8.74228e-08 -1 18 63)"/>
</clipPath>
<clipPath id="clip33_724_6238">
<rect width="9" height="18" fill="white" transform="matrix(1 8.74228e-08 8.74228e-08 -1 18 81)"/>
</clipPath>
<clipPath id="clip34_724_6238">
<rect width="9" height="18" fill="white" transform="translate(18 81) rotate(-180)"/>
</clipPath>
<clipPath id="clip35_724_6238">
<rect width="9" height="18" fill="white" transform="matrix(1 8.74228e-08 8.74228e-08 -1 0 63)"/>
</clipPath>
<clipPath id="clip36_724_6238">
<rect width="9" height="18" fill="white" transform="matrix(1 8.74228e-08 8.74228e-08 -1 0 81)"/>
</clipPath>
<clipPath id="clip37_724_6238">
<rect width="36" height="54" fill="white" transform="translate(36 -18)"/>
</clipPath>
<clipPath id="clip38_724_6238">
<rect width="9" height="18" fill="white" transform="translate(72 18) rotate(-180)"/>
</clipPath>
<clipPath id="clip39_724_6238">
<rect width="9" height="18" fill="white" transform="translate(54 18) rotate(-180)"/>
</clipPath>
<clipPath id="clip40_724_6238">
<rect width="9" height="18" fill="white" transform="translate(45)"/>
</clipPath>
<clipPath id="clip41_724_6238">
<rect width="9" height="18" fill="white" transform="matrix(-1 0 0 1 63 0)"/>
</clipPath>
<clipPath id="clip42_724_6238">
<rect width="9" height="18" fill="white" transform="matrix(-1 0 0 1 45 0)"/>
</clipPath>
<clipPath id="clip43_724_6238">
<rect width="9" height="18" fill="white" transform="translate(63)"/>
</clipPath>
<clipPath id="clip44_724_6238">
<rect width="9" height="18" fill="white" transform="translate(72 36) rotate(-180)"/>
</clipPath>
<clipPath id="clip45_724_6238">
<rect width="9" height="18" fill="white" transform="matrix(1 8.74228e-08 8.74228e-08 -1 54 18)"/>
</clipPath>
<clipPath id="clip46_724_6238">
<rect width="9" height="18" fill="white" transform="matrix(1 8.74228e-08 8.74228e-08 -1 54 36)"/>
</clipPath>
<clipPath id="clip47_724_6238">
<rect width="9" height="18" fill="white" transform="translate(54 36) rotate(-180)"/>
</clipPath>
<clipPath id="clip48_724_6238">
<rect width="9" height="18" fill="white" transform="matrix(1 8.74228e-08 8.74228e-08 -1 36 18)"/>
</clipPath>
<clipPath id="clip49_724_6238">
<rect width="9" height="18" fill="white" transform="matrix(1 8.74228e-08 8.74228e-08 -1 36 36)"/>
</clipPath>
<clipPath id="clip50_724_6238">
<rect width="36" height="54" fill="white" transform="translate(36 72)"/>
</clipPath>
<clipPath id="clip51_724_6238">
<rect width="9" height="18" fill="white" transform="translate(45 72)"/>
</clipPath>
<clipPath id="clip52_724_6238">
<rect width="9" height="18" fill="white" transform="matrix(-1 0 0 1 63 72)"/>
</clipPath>
<clipPath id="clip53_724_6238">
<rect width="9" height="18" fill="white" transform="matrix(-1 0 0 1 45 72)"/>
</clipPath>
<clipPath id="clip54_724_6238">
<rect width="9" height="18" fill="white" transform="translate(63 72)"/>
</clipPath>
<clipPath id="clip55_724_6238">
<rect width="36" height="54" fill="white" transform="translate(36 27)"/>
</clipPath>
<clipPath id="clip56_724_6238">
<rect width="9" height="18" fill="white" transform="translate(72 63) rotate(-180)"/>
</clipPath>
<clipPath id="clip57_724_6238">
<rect width="9" height="18" fill="white" transform="translate(54 63) rotate(-180)"/>
</clipPath>
<clipPath id="clip58_724_6238">
<rect width="9" height="18" fill="white" transform="translate(45 45)"/>
</clipPath>
<clipPath id="clip59_724_6238">
<rect width="9" height="18" fill="white" transform="translate(45 27)"/>
</clipPath>
<clipPath id="clip60_724_6238">
<rect width="9" height="18" fill="white" transform="matrix(-1 0 0 1 63 27)"/>
</clipPath>
<clipPath id="clip61_724_6238">
<rect width="9" height="18" fill="white" transform="matrix(-1 0 0 1 63 45)"/>
</clipPath>
<clipPath id="clip62_724_6238">
<rect width="9" height="18" fill="white" transform="matrix(-1 0 0 1 45 27)"/>
</clipPath>
<clipPath id="clip63_724_6238">
<rect width="9" height="18" fill="white" transform="matrix(-1 0 0 1 45 45)"/>
</clipPath>
<clipPath id="clip64_724_6238">
<rect width="9" height="18" fill="white" transform="translate(63 45)"/>
</clipPath>
<clipPath id="clip65_724_6238">
<rect width="9" height="18" fill="white" transform="translate(63 27)"/>
</clipPath>
<clipPath id="clip66_724_6238">
<rect width="9" height="18" fill="white" transform="translate(72 81) rotate(-180)"/>
</clipPath>
<clipPath id="clip67_724_6238">
<rect width="9" height="18" fill="white" transform="matrix(1 8.74228e-08 8.74228e-08 -1 54 63)"/>
</clipPath>
<clipPath id="clip68_724_6238">
<path d="M54 54C54 58.9706 58.0294 63 63 63V63C67.9706 63 72 58.9706 72 54L72 45L54 45L54 54Z" fill="white"/>
</clipPath>
<clipPath id="clip69_724_6238">
<rect width="9" height="18" fill="white" transform="matrix(1 8.74228e-08 8.74228e-08 -1 54 81)"/>
</clipPath>
<clipPath id="clip70_724_6238">
<rect width="9" height="18" fill="white" transform="translate(54 81) rotate(-180)"/>
</clipPath>
<clipPath id="clip71_724_6238">
<rect width="9" height="18" fill="white" transform="matrix(1 8.74228e-08 8.74228e-08 -1 36 63)"/>
</clipPath>
<clipPath id="clip72_724_6238">
<rect width="9" height="18" fill="white" transform="matrix(1 8.74228e-08 8.74228e-08 -1 36 81)"/>
</clipPath>
</defs>
</svg>
