<svg width="248" height="248" viewBox="0 0 248 248" fill="none" xmlns="http://www.w3.org/2000/svg">
<g clip-path="url(#clip0_723_6237)">
<rect width="61.9999" height="61.9999" transform="translate(62 62) rotate(90)" fill="#666773"/>
<circle cx="-0.171827" cy="92.9999" r="31" transform="rotate(90 -0.171827 92.9999)" fill="#E8E8E8"/>
<circle cx="61.8292" cy="92.9999" r="31" transform="rotate(90 61.8292 92.9999)" fill="#E8E8E8"/>
</g>
<g clip-path="url(#clip1_723_6237)">
<rect width="61.9999" height="61.9999" transform="translate(124) rotate(90)" fill="#666773"/>
<circle cx="61.8282" cy="30.9999" r="31" transform="rotate(90 61.8282 30.9999)" fill="#E8E8E8"/>
<circle cx="123.829" cy="30.9999" r="31" transform="rotate(90 123.829 30.9999)" fill="#E8E8E8"/>
</g>
<g clip-path="url(#clip2_723_6237)">
<rect width="61.9999" height="61.9999" transform="translate(62 62)" fill="#E8E8E8"/>
<circle cx="93" cy="124.171" r="31" fill="#4F505E"/>
<circle cx="93" cy="62.1713" r="31" fill="#4F505E"/>
</g>
<g clip-path="url(#clip3_723_6237)">
<rect width="61.9999" height="61.9999" fill="#E8E8E8"/>
<circle cx="31" cy="62.1711" r="31" fill="#4F505E"/>
<circle cx="31" cy="0.171337" r="31" fill="#4F505E"/>
</g>
<g clip-path="url(#clip4_723_6237)">
<rect width="61.9999" height="61.9999" transform="translate(62 62) rotate(90)" fill="#4F505E"/>
<circle cx="-0.171827" cy="92.9999" r="31" transform="rotate(90 -0.171827 92.9999)" fill="#E8E8E8"/>
<circle cx="61.8292" cy="92.9999" r="31" transform="rotate(90 61.8292 92.9999)" fill="#E8E8E8"/>
</g>
<g clip-path="url(#clip5_723_6237)">
<rect width="61.9999" height="61.9999" transform="translate(124) rotate(90)" fill="#4F505E"/>
<circle cx="61.8282" cy="30.9999" r="31" transform="rotate(90 61.8282 30.9999)" fill="#E8E8E8"/>
<circle cx="123.829" cy="30.9999" r="31" transform="rotate(90 123.829 30.9999)" fill="#E8E8E8"/>
</g>
<g clip-path="url(#clip6_723_6237)">
<rect width="61.9999" height="61.9999" transform="translate(62 62)" fill="#E8E8E8"/>
<circle cx="93" cy="124.171" r="31" fill="#4F505E"/>
<circle cx="93" cy="62.1713" r="31" fill="#4F505E"/>
</g>
<g clip-path="url(#clip7_723_6237)">
<rect width="61.9999" height="61.9999" fill="#E8E8E8"/>
<circle cx="31" cy="62.1711" r="31" fill="#4F505E"/>
<circle cx="31" cy="0.171337" r="31" fill="#4F505E"/>
</g>
<g clip-path="url(#clip8_723_6237)">
<rect width="61.9999" height="61.9999" transform="translate(62 186) rotate(90)" fill="#666773"/>
<circle cx="-0.171827" cy="217" r="31" transform="rotate(90 -0.171827 217)" fill="#E8E8E8"/>
<circle cx="61.8292" cy="217" r="31" transform="rotate(90 61.8292 217)" fill="#E8E8E8"/>
</g>
<g clip-path="url(#clip9_723_6237)">
<rect width="61.9999" height="61.9999" transform="translate(124 124) rotate(90)" fill="#666773"/>
<circle cx="61.8282" cy="155" r="31" transform="rotate(90 61.8282 155)" fill="#E8E8E8"/>
<circle cx="123.829" cy="155" r="31" transform="rotate(90 123.829 155)" fill="#E8E8E8"/>
</g>
<g clip-path="url(#clip10_723_6237)">
<rect width="61.9999" height="61.9999" transform="translate(62 186)" fill="#E8E8E8"/>
<circle cx="93" cy="248.171" r="31" fill="#4F505E"/>
<circle cx="93" cy="186.171" r="31" fill="#4F505E"/>
</g>
<g clip-path="url(#clip11_723_6237)">
<rect width="61.9999" height="61.9999" transform="translate(0 124)" fill="#E8E8E8"/>
<circle cx="31" cy="186.171" r="31" fill="#4F505E"/>
<circle cx="31" cy="124.171" r="31" fill="#4F505E"/>
</g>
<g clip-path="url(#clip12_723_6237)">
<rect width="61.9999" height="61.9999" transform="translate(62 186) rotate(90)" fill="#4F505E"/>
<circle cx="-0.171827" cy="217" r="31" transform="rotate(90 -0.171827 217)" fill="#E8E8E8"/>
<circle cx="61.8292" cy="217" r="31" transform="rotate(90 61.8292 217)" fill="#E8E8E8"/>
</g>
<g clip-path="url(#clip13_723_6237)">
<rect width="61.9999" height="61.9999" transform="translate(124 124) rotate(90)" fill="#4F505E"/>
<circle cx="61.8282" cy="155" r="31" transform="rotate(90 61.8282 155)" fill="#E8E8E8"/>
<circle cx="123.829" cy="155" r="31" transform="rotate(90 123.829 155)" fill="#E8E8E8"/>
</g>
<g clip-path="url(#clip14_723_6237)">
<rect width="61.9999" height="61.9999" transform="translate(62 186)" fill="#E8E8E8"/>
<circle cx="93" cy="248.171" r="31" fill="#4F505E"/>
<circle cx="93" cy="186.171" r="31" fill="#4F505E"/>
</g>
<g clip-path="url(#clip15_723_6237)">
<rect width="61.9999" height="61.9999" transform="translate(0 124)" fill="#E8E8E8"/>
<circle cx="31" cy="186.171" r="31" fill="#4F505E"/>
<circle cx="31" cy="124.171" r="31" fill="#4F505E"/>
</g>
<g clip-path="url(#clip16_723_6237)">
<rect width="61.9999" height="61.9999" transform="translate(186 62) rotate(90)" fill="#666773"/>
<circle cx="123.828" cy="92.9999" r="31" transform="rotate(90 123.828 92.9999)" fill="#E8E8E8"/>
<circle cx="185.829" cy="92.9999" r="31" transform="rotate(90 185.829 92.9999)" fill="#E8E8E8"/>
</g>
<g clip-path="url(#clip17_723_6237)">
<rect width="61.9999" height="61.9999" transform="translate(248) rotate(90)" fill="#666773"/>
<circle cx="185.828" cy="30.9999" r="31" transform="rotate(90 185.828 30.9999)" fill="#E8E8E8"/>
<circle cx="247.829" cy="30.9999" r="31" transform="rotate(90 247.829 30.9999)" fill="#E8E8E8"/>
</g>
<g clip-path="url(#clip18_723_6237)">
<rect width="61.9999" height="61.9999" transform="translate(186 62)" fill="#E8E8E8"/>
<circle cx="217" cy="124.171" r="31" fill="#4F505E"/>
<circle cx="217" cy="62.1713" r="31" fill="#4F505E"/>
</g>
<g clip-path="url(#clip19_723_6237)">
<rect width="61.9999" height="61.9999" transform="translate(124)" fill="#E8E8E8"/>
<circle cx="155" cy="62.1711" r="31" fill="#4F505E"/>
<circle cx="155" cy="0.171337" r="31" fill="#4F505E"/>
</g>
<g clip-path="url(#clip20_723_6237)">
<rect width="61.9999" height="61.9999" transform="translate(186 62) rotate(90)" fill="#4F505E"/>
<circle cx="123.828" cy="92.9999" r="31" transform="rotate(90 123.828 92.9999)" fill="#E8E8E8"/>
<circle cx="185.829" cy="92.9999" r="31" transform="rotate(90 185.829 92.9999)" fill="#E8E8E8"/>
</g>
<g clip-path="url(#clip21_723_6237)">
<rect width="61.9999" height="61.9999" transform="translate(248) rotate(90)" fill="#4F505E"/>
<circle cx="185.828" cy="30.9999" r="31" transform="rotate(90 185.828 30.9999)" fill="#E8E8E8"/>
<circle cx="247.829" cy="30.9999" r="31" transform="rotate(90 247.829 30.9999)" fill="#E8E8E8"/>
</g>
<g clip-path="url(#clip22_723_6237)">
<rect width="61.9999" height="61.9999" transform="translate(186 62)" fill="#E8E8E8"/>
<circle cx="217" cy="124.171" r="31" fill="#4F505E"/>
<circle cx="217" cy="62.1713" r="31" fill="#4F505E"/>
</g>
<g clip-path="url(#clip23_723_6237)">
<rect width="61.9999" height="61.9999" transform="translate(124)" fill="#E8E8E8"/>
<circle cx="155" cy="62.1711" r="31" fill="#4F505E"/>
<circle cx="155" cy="0.171337" r="31" fill="#4F505E"/>
</g>
<g clip-path="url(#clip24_723_6237)">
<rect width="61.9999" height="61.9999" transform="translate(186 186) rotate(90)" fill="#666773"/>
<circle cx="123.828" cy="217" r="31" transform="rotate(90 123.828 217)" fill="#E8E8E8"/>
<circle cx="185.829" cy="217" r="31" transform="rotate(90 185.829 217)" fill="#E8E8E8"/>
</g>
<g clip-path="url(#clip25_723_6237)">
<rect width="61.9999" height="61.9999" transform="translate(248 124) rotate(90)" fill="#666773"/>
<circle cx="185.828" cy="155" r="31" transform="rotate(90 185.828 155)" fill="#E8E8E8"/>
<circle cx="247.829" cy="155" r="31" transform="rotate(90 247.829 155)" fill="#E8E8E8"/>
</g>
<g clip-path="url(#clip26_723_6237)">
<rect width="61.9999" height="61.9999" transform="translate(186 186)" fill="#E8E8E8"/>
<circle cx="217" cy="248.171" r="31" fill="#4F505E"/>
<circle cx="217" cy="186.171" r="31" fill="#4F505E"/>
</g>
<g clip-path="url(#clip27_723_6237)">
<rect width="61.9999" height="61.9999" transform="translate(124 124)" fill="#E8E8E8"/>
<circle cx="155" cy="186.171" r="31" fill="#4F505E"/>
<circle cx="155" cy="124.171" r="31" fill="#4F505E"/>
</g>
<g clip-path="url(#clip28_723_6237)">
<rect width="61.9999" height="61.9999" transform="translate(186 186) rotate(90)" fill="#4F505E"/>
<circle cx="123.828" cy="217" r="31" transform="rotate(90 123.828 217)" fill="#E8E8E8"/>
<circle cx="185.829" cy="217" r="31" transform="rotate(90 185.829 217)" fill="#E8E8E8"/>
</g>
<g clip-path="url(#clip29_723_6237)">
<rect width="61.9999" height="61.9999" transform="translate(248 124) rotate(90)" fill="#4F505E"/>
<circle cx="185.828" cy="155" r="31" transform="rotate(90 185.828 155)" fill="#E8E8E8"/>
<circle cx="247.829" cy="155" r="31" transform="rotate(90 247.829 155)" fill="#E8E8E8"/>
</g>
<g clip-path="url(#clip30_723_6237)">
<rect width="61.9999" height="61.9999" transform="translate(186 186)" fill="#E8E8E8"/>
<circle cx="217" cy="248.171" r="31" fill="#4F505E"/>
<circle cx="217" cy="186.171" r="31" fill="#4F505E"/>
</g>
<g clip-path="url(#clip31_723_6237)">
<rect width="61.9999" height="61.9999" transform="translate(124 124)" fill="#E8E8E8"/>
<circle cx="155" cy="186.171" r="31" fill="#4F505E"/>
<circle cx="155" cy="124.171" r="31" fill="#4F505E"/>
</g>
<defs>
<clipPath id="clip0_723_6237">
<rect width="61.9999" height="61.9999" fill="white" transform="translate(62 62) rotate(90)"/>
</clipPath>
<clipPath id="clip1_723_6237">
<rect width="61.9999" height="61.9999" fill="white" transform="translate(124) rotate(90)"/>
</clipPath>
<clipPath id="clip2_723_6237">
<rect width="61.9999" height="61.9999" fill="white" transform="translate(62 62)"/>
</clipPath>
<clipPath id="clip3_723_6237">
<rect width="61.9999" height="61.9999" fill="white"/>
</clipPath>
<clipPath id="clip4_723_6237">
<rect width="61.9999" height="61.9999" fill="white" transform="translate(62 62) rotate(90)"/>
</clipPath>
<clipPath id="clip5_723_6237">
<rect width="61.9999" height="61.9999" fill="white" transform="translate(124) rotate(90)"/>
</clipPath>
<clipPath id="clip6_723_6237">
<rect width="61.9999" height="61.9999" fill="white" transform="translate(62 62)"/>
</clipPath>
<clipPath id="clip7_723_6237">
<rect width="61.9999" height="61.9999" fill="white"/>
</clipPath>
<clipPath id="clip8_723_6237">
<rect width="61.9999" height="61.9999" fill="white" transform="translate(62 186) rotate(90)"/>
</clipPath>
<clipPath id="clip9_723_6237">
<rect width="61.9999" height="61.9999" fill="white" transform="translate(124 124) rotate(90)"/>
</clipPath>
<clipPath id="clip10_723_6237">
<rect width="61.9999" height="61.9999" fill="white" transform="translate(62 186)"/>
</clipPath>
<clipPath id="clip11_723_6237">
<rect width="61.9999" height="61.9999" fill="white" transform="translate(0 124)"/>
</clipPath>
<clipPath id="clip12_723_6237">
<rect width="61.9999" height="61.9999" fill="white" transform="translate(62 186) rotate(90)"/>
</clipPath>
<clipPath id="clip13_723_6237">
<rect width="61.9999" height="61.9999" fill="white" transform="translate(124 124) rotate(90)"/>
</clipPath>
<clipPath id="clip14_723_6237">
<rect width="61.9999" height="61.9999" fill="white" transform="translate(62 186)"/>
</clipPath>
<clipPath id="clip15_723_6237">
<rect width="61.9999" height="61.9999" fill="white" transform="translate(0 124)"/>
</clipPath>
<clipPath id="clip16_723_6237">
<rect width="61.9999" height="61.9999" fill="white" transform="translate(186 62) rotate(90)"/>
</clipPath>
<clipPath id="clip17_723_6237">
<rect width="61.9999" height="61.9999" fill="white" transform="translate(248) rotate(90)"/>
</clipPath>
<clipPath id="clip18_723_6237">
<rect width="61.9999" height="61.9999" fill="white" transform="translate(186 62)"/>
</clipPath>
<clipPath id="clip19_723_6237">
<rect width="61.9999" height="61.9999" fill="white" transform="translate(124)"/>
</clipPath>
<clipPath id="clip20_723_6237">
<rect width="61.9999" height="61.9999" fill="white" transform="translate(186 62) rotate(90)"/>
</clipPath>
<clipPath id="clip21_723_6237">
<rect width="61.9999" height="61.9999" fill="white" transform="translate(248) rotate(90)"/>
</clipPath>
<clipPath id="clip22_723_6237">
<rect width="61.9999" height="61.9999" fill="white" transform="translate(186 62)"/>
</clipPath>
<clipPath id="clip23_723_6237">
<rect width="61.9999" height="61.9999" fill="white" transform="translate(124)"/>
</clipPath>
<clipPath id="clip24_723_6237">
<rect width="61.9999" height="61.9999" fill="white" transform="translate(186 186) rotate(90)"/>
</clipPath>
<clipPath id="clip25_723_6237">
<rect width="61.9999" height="61.9999" fill="white" transform="translate(248 124) rotate(90)"/>
</clipPath>
<clipPath id="clip26_723_6237">
<rect width="61.9999" height="61.9999" fill="white" transform="translate(186 186)"/>
</clipPath>
<clipPath id="clip27_723_6237">
<rect width="61.9999" height="61.9999" fill="white" transform="translate(124 124)"/>
</clipPath>
<clipPath id="clip28_723_6237">
<rect width="61.9999" height="61.9999" fill="white" transform="translate(186 186) rotate(90)"/>
</clipPath>
<clipPath id="clip29_723_6237">
<rect width="61.9999" height="61.9999" fill="white" transform="translate(248 124) rotate(90)"/>
</clipPath>
<clipPath id="clip30_723_6237">
<rect width="61.9999" height="61.9999" fill="white" transform="translate(186 186)"/>
</clipPath>
<clipPath id="clip31_723_6237">
<rect width="61.9999" height="61.9999" fill="white" transform="translate(124 124)"/>
</clipPath>
</defs>
</svg>
