<?xml version="1.0" standalone="no"?>
<!DOCTYPE svg PUBLIC "-//W3C//DTD SVG 20010904//EN"
 "http://www.w3.org/TR/2001/REC-SVG-20010904/DTD/svg10.dtd">
<svg version="1.0" xmlns="http://www.w3.org/2000/svg"
 width="700.000000pt" height="700.000000pt" viewBox="0 0 700.000000 700.000000"
 preserveAspectRatio="xMidYMid meet">
<metadata>
Created by potrace 1.14, written by Peter Selinger 2001-2017
</metadata>
<g transform="translate(0.000000,700.000000) scale(0.100000,-0.100000)"
fill="#000000" stroke="none">
<path d="M2502 6968 c-228 -26 -410 -158 -503 -364 -59 -130 -56 58 -56 -3110
0 -2843 1 -2921 19 -2994 29 -111 82 -204 163 -286 93 -93 194 -148 329 -179
34 -7 180 -8 217 0 117 23 223 75 308 151 87 78 133 149 184 282 l22 57 2
2945 c3 3105 4 2990 -39 3100 -58 148 -166 268 -308 340 -48 24 -170 57 -230
62 -25 2 -73 0 -108 -4z"/>
<path d="M4395 6969 c-199 -18 -384 -141 -484 -322 -23 -41 -55 -129 -67 -187
-4 -19 -8 -1342 -9 -2940 0 -2213 2 -2922 11 -2976 38 -222 192 -406 403 -479
243 -85 504 -18 676 173 74 83 133 212 150 327 6 43 6 122 5 3545 0 1980 -2
2324 -15 2376 -73 311 -352 512 -670 483z"/>
<path d="M6280 6969 c-286 -25 -530 -256 -568 -534 -3 -27 -6 -1359 -6 -2960
l-1 -2910 24 -75 c28 -92 52 -139 104 -210 113 -154 304 -250 498 -250 46 -1
95 2 109 5 14 2 34 7 45 9 53 11 144 49 192 81 143 95 235 222 279 386 16 60
17 261 18 2949 1 1587 -2 2914 -6 2950 -21 211 -161 408 -354 499 -108 52
-214 71 -334 60z"/>
<path d="M579 3325 c-3 -2 -18 -6 -35 -9 -61 -11 -213 -79 -234 -105 -3 -4
-20 -19 -39 -34 -83 -68 -182 -223 -192 -299 0 -4 -7 -28 -15 -54 -11 -38 -14
-233 -14 -1130 0 -1177 -1 -1164 55 -1290 84 -189 267 -331 479 -370 66 -12
186 -5 261 15 215 59 363 197 442 411 l28 75 0 1120 c0 616 -3 1138 -7 1160
-40 223 -209 415 -428 487 -47 15 -97 22 -181 24 -64 2 -118 2 -120 -1z"/>
</g>
</svg>
