<svg width="35" height="13" viewBox="0 0 35 13" fill="none" xmlns="http://www.w3.org/2000/svg">
<path d="M1 5.75C0.585786 5.75 0.25 6.08579 0.25 6.5C0.25 6.91421 0.585786 7.25 1 7.25V5.75ZM34.5303 7.03033C34.8232 6.73744 34.8232 6.26256 34.5303 5.96967L29.7574 1.1967C29.4645 0.903806 28.9896 0.903806 28.6967 1.1967C28.4038 1.48959 28.4038 1.96447 28.6967 2.25736L32.9393 6.5L28.6967 10.7426C28.4038 11.0355 28.4038 11.5104 28.6967 11.8033C28.9896 12.0962 29.4645 12.0962 29.7574 11.8033L34.5303 7.03033ZM1 7.25H34V5.75H1V7.25Z" fill="#FDFCFC"/>
</svg>
