<?xml version="1.0" encoding="utf-8"?>
<svg width="50" height="50" viewBox="0 0 50 50" fill="none" xmlns="http://www.w3.org/2000/svg">
	<style>
		@import '/styles/pages/landing.css';
	</style>
	<path fill-rule="evenodd" clip-rule="evenodd" d="M39.6105 20.3521C39.6105 20.0793 38.9564 19.6988 38.9564 19.6988L25.7493 11.0945C25.7493 11.0945 25.0311 10.8784 24.6916 11.0997L12.1322 19.2834C12.0493 19.335 12.2131 19.2348 12.1322 19.2834C11.8783 19.4359 11.6379 19.5803 11.4332 19.7582C11.176 19.9817 11.0208 20.222 11.0101 20.5352C10.9909 21.1544 11.0038 22.7332 11.0103 23.3627C11.0135 23.6795 11.0103 23.0447 11.0103 23.3627L11.0224 29.1523C11.0936 29.6856 11.4837 29.9502 11.4837 29.9502C11.4837 29.9502 23.192 37.6045 24.3275 38.3398C24.3127 38.3303 24.7055 38.567 24.9818 38.6512C25.4134 38.7461 25.8179 38.5185 25.8179 38.5185C27.1091 37.6818 37.7192 30.7707 39.011 29.9264C39.3262 29.7063 39.4097 29.4365 39.4097 29.0381L39.6105 21.9009C39.6388 21.5969 39.6338 20.591 39.6105 20.3521ZM26.1727 13.586L36.8026 20.5239L31.9016 23.7498L26.1727 20.0063V13.586ZM24.2763 19.9774L18.5782 23.7209L13.6432 20.526L24.2763 13.586V19.9774ZM12.9067 22.2387L16.8586 24.8383L12.9067 27.4379V22.2387ZM24.2472 36.0914L13.647 29.1523L18.5478 25.9265L24.2472 29.6708V36.0914ZM25.2245 28.0916L20.2652 24.8383L25.2245 21.5851L30.1838 24.8383L25.2245 28.0916ZM26.1727 36.0901V29.6992L31.8722 25.9549L36.7738 29.1813L26.1727 36.0901ZM37.5383 27.4353L33.5886 24.8371L37.5753 22.239L37.5383 27.4353Z"/>
</svg>
