<svg width="28" height="29" viewBox="0 0 28 29" fill="none" xmlns="http://www.w3.org/2000/svg">
<path d="M27.584 18.0234L25.1484 16.6641C25.4316 15.3047 25.4316 14.002 25.1484 12.6426L27.584 11.2832C27.8672 11.1133 27.9805 10.7734 27.8672 10.4902C27.2441 8.45117 26.168 6.63867 24.8086 5.10938C24.582 4.88281 24.2422 4.82617 23.959 4.99609L21.5234 6.35547C20.5039 5.50586 19.3711 4.82617 18.125 4.37305V1.59766C18.125 1.31445 17.8984 1.03125 17.5586 0.974609C15.4629 0.464844 13.3672 0.521484 11.3848 0.974609C11.0449 1.03125 10.875 1.31445 10.875 1.59766V4.37305C9.57227 4.82617 8.43945 5.50586 7.41992 6.41211L4.98438 4.99609C4.70117 4.82617 4.36133 4.88281 4.13477 5.10938C2.77539 6.63867 1.69922 8.45117 1.07617 10.4902C0.962891 10.7734 1.07617 11.1133 1.35938 11.2832L3.79492 12.6426C3.56836 14.002 3.56836 15.3047 3.79492 16.6641L1.35938 18.0234C1.07617 18.1934 0.962891 18.5332 1.07617 18.8164C1.69922 20.8555 2.77539 22.668 4.13477 24.1973C4.36133 24.4238 4.70117 24.4805 4.98438 24.3105L7.41992 22.9512C8.43945 23.8008 9.57227 24.4805 10.875 24.9336V27.709C10.875 27.9922 11.1016 28.2754 11.3848 28.3887C13.4805 28.8418 15.5762 28.7852 17.5586 28.3887C17.8984 28.2754 18.125 27.9922 18.125 27.709V24.9336C19.3711 24.4805 20.5039 23.8008 21.5234 22.9512L23.959 24.3105C24.2422 24.4805 24.582 24.4238 24.8086 24.1973C26.2246 22.668 27.2441 20.8555 27.9238 18.8164C27.9805 18.5332 27.8672 18.1934 27.584 18.0234ZM14.5 19.1562C11.9512 19.1562 9.96875 17.1738 9.96875 14.625C9.96875 12.1328 11.9512 10.0938 14.5 10.0938C16.9922 10.0938 19.0312 12.1328 19.0312 14.625C19.0312 17.1738 16.9922 19.1562 14.5 19.1562Z" fill="white"/>
</svg>
