<?xml version="1.0" encoding="utf-8"?>
<svg width="50" height="50" viewBox="0 0 50 50" xmlns="http://www.w3.org/2000/svg">
	<style>
		@import '/styles/pages/landing.css';
	</style>
	<path d="M25 12C17.8318 12 12 17.8318 12 25C12 32.1682 17.8318 38 25 38C32.1682 38 38 32.1682 38 25C38 17.8318 32.1682 12 25 12ZM33.5952 17.995C35.1417 19.8845 36.0783 22.2911 36.1027 24.912C35.7366 24.8346 32.0654 24.0899 28.3707 24.5546C28.0692 23.8186 27.7846 23.1711 27.3948 22.3732C31.5004 20.697 33.3611 18.3117 33.5952 17.995V17.995ZM32.3608 16.7109C32.1611 16.9954 30.4896 19.242 26.5411 20.722C24.7215 17.3789 22.7048 14.6326 22.3979 14.2216C25.9192 13.3728 29.63 14.2882 32.3608 16.7109V16.7109ZM20.2792 14.968C20.5719 15.3695 22.5562 18.1192 24.396 21.3898C19.2019 22.7691 14.6272 22.7493 14.1305 22.7427C14.8506 19.297 17.1726 16.4333 20.2792 14.968ZM13.896 25.0169C13.896 24.9034 13.8983 24.7904 13.9017 24.6776C14.3875 24.6876 19.7684 24.7569 25.3137 23.0974C25.6315 23.7195 25.9352 24.351 26.2139 24.9818C22.1987 26.1128 18.5505 29.3602 16.7506 32.4414C14.9771 30.4728 13.896 27.8689 13.896 25.0169ZM18.1843 33.7769C19.3442 31.4058 22.492 28.3451 26.9687 26.8179C28.5276 30.869 29.1723 34.2642 29.3374 35.2384C25.7671 36.7593 21.4737 36.342 18.1843 33.7769V33.7769ZM31.2042 34.2219C31.0904 33.5464 30.4994 30.2958 29.047 26.3048C32.5266 25.7478 35.5837 26.6596 35.9636 26.7795C35.4687 29.8691 33.6953 32.5374 31.2042 34.2219Z"/>
</svg>
