<?xml-stylesheet type="text/css" href="../../../styles/pages/landing.css" ?>
<svg width="50" height="50" viewBox="0 0 50 50" xmlns="http://www.w3.org/2000/svg">
<path fill-rule="evenodd" clip-rule="evenodd" d="M25 12C17.8175 12 12 17.8175 12 25C12 30.7525 15.7212 35.6112 20.8887 37.3337C21.5387 37.4475 21.7825 37.0575 21.7825 36.7162C21.7825 36.4075 21.7663 35.3837 21.7663 34.295C18.5 34.8962 17.655 33.4987 17.395 32.7675C17.2487 32.3937 16.615 31.24 16.0625 30.9312C15.6075 30.6875 14.9575 30.0862 16.0463 30.07C17.07 30.0537 17.8013 31.0125 18.045 31.4025C19.215 33.3687 21.0838 32.8162 21.8313 32.475C21.945 31.63 22.2862 31.0612 22.66 30.7362C19.7675 30.4112 16.745 29.29 16.745 24.3175C16.745 22.9037 17.2488 21.7337 18.0775 20.8237C17.9475 20.4987 17.4925 19.1662 18.2075 17.3787C18.2075 17.3787 19.2963 17.0375 21.7825 18.7112C22.8225 18.4187 23.9275 18.2725 25.0325 18.2725C26.1375 18.2725 27.2425 18.4187 28.2825 18.7112C30.7688 17.0212 31.8575 17.3787 31.8575 17.3787C32.5725 19.1662 32.1175 20.4987 31.9875 20.8237C32.8163 21.7337 33.32 22.8875 33.32 24.3175C33.32 29.3062 30.2813 30.4112 27.3888 30.7362C27.86 31.1425 28.2663 31.9225 28.2663 33.1412C28.2663 34.88 28.25 36.2775 28.25 36.7162C28.25 37.0575 28.4938 37.4637 29.1438 37.3337C34.2788 35.6112 38 30.7362 38 25C38 17.8175 32.1825 12 25 12V12Z"/>
</svg>
