<svg width="50" height="50" viewBox="0 0 50 50" fill="none" xmlns="http://www.w3.org/2000/svg">
<path d="M25.0029 18.3354C21.3139 18.3354 18.3383 21.311 18.3383 25C18.3383 28.689 21.3139 31.6646 25.0029 31.6646C28.6919 31.6646 31.6675 28.689 31.6675 25C31.6675 21.311 28.6919 18.3354 25.0029 18.3354ZM25.0029 29.3329C22.619 29.3329 20.67 27.3898 20.67 25C20.67 22.6103 22.6132 20.6672 25.0029 20.6672C27.3926 20.6672 29.3358 22.6103 29.3358 25C29.3358 27.3898 27.3868 29.3329 25.0029 29.3329V29.3329ZM33.4946 18.0628C33.4946 18.9271 32.7986 19.6173 31.9401 19.6173C31.0759 19.6173 30.3856 18.9213 30.3856 18.0628C30.3856 17.2044 31.0817 16.5083 31.9401 16.5083C32.7986 16.5083 33.4946 17.2044 33.4946 18.0628ZM37.9086 19.6405C37.81 17.5582 37.3344 15.7137 35.8089 14.194C34.2892 12.6743 32.4447 12.1987 30.3624 12.0943C28.2163 11.9725 21.7837 11.9725 19.6376 12.0943C17.5611 12.1929 15.7166 12.6685 14.1911 14.1882C12.6656 15.7079 12.1958 17.5524 12.0914 19.6347C11.9695 21.7808 11.9695 28.2134 12.0914 30.3595C12.19 32.4419 12.6656 34.2864 14.1911 35.8061C15.7166 37.3257 17.5553 37.8014 19.6376 37.9058C21.7837 38.0276 28.2163 38.0276 30.3624 37.9058C32.4447 37.8072 34.2892 37.3315 35.8089 35.8061C37.3286 34.2864 37.8042 32.4419 37.9086 30.3595C38.0305 28.2134 38.0305 21.7866 37.9086 19.6405V19.6405ZM35.1361 32.6623C34.6837 33.7991 33.8078 34.675 32.6651 35.1332C30.954 35.8119 26.8938 35.6552 25.0029 35.6552C23.112 35.6552 19.046 35.8061 17.3407 35.1332C16.2038 34.6808 15.3279 33.8049 14.8697 32.6623C14.1911 30.9512 14.3477 26.8909 14.3477 25C14.3477 23.1091 14.1969 19.0431 14.8697 17.3378C15.3221 16.2009 16.198 15.3251 17.3407 14.8668C19.0518 14.1882 23.112 14.3448 25.0029 14.3448C26.8938 14.3448 30.9598 14.194 32.6651 14.8668C33.802 15.3193 34.6779 16.1951 35.1361 17.3378C35.8147 19.0489 35.6581 23.1091 35.6581 25C35.6581 26.8909 35.8147 30.957 35.1361 32.6623Z" fill="#F3F6F7"/>
</svg>
