<?xml-stylesheet type="text/css" href="../../../styles/pages/landing.css" ?>
<svg width="50" height="50" viewBox="0 0 50 50" xmlns="http://www.w3.org/2000/svg">
<g clip-path="url(#clip0_521_299)">
<path d="M26.9174 24.7291C26.9174 29.549 23.0367 33.4565 18.2495 33.4565C13.4622 33.4565 9.58179 29.5502 9.58179 24.7291C9.58179 19.908 13.4625 16.002 18.2495 16.002C23.0364 16.002 26.9174 19.9092 26.9174 24.7291ZM36.4263 24.7291C36.4263 29.2664 34.4858 32.9444 32.0923 32.9444C29.6988 32.9444 27.7583 29.2653 27.7583 24.7291C27.7583 20.1929 29.6988 16.5138 32.0923 16.5138C34.4858 16.5138 36.4263 20.1929 36.4263 24.7291ZM40.3155 24.7291C40.3155 28.7943 39.633 32.0896 38.7912 32.0896C37.9494 32.0896 37.2669 28.7932 37.2669 24.7291C37.2669 20.665 37.9494 17.3685 38.7915 17.3685C39.6336 17.3685 40.3155 20.6641 40.3155 24.7291Z"/>
</g>
<defs>
<clipPath id="clip0_521_299">
<rect width="32" height="18.1818" transform="translate(9 15.5)"/>
</clipPath>
</defs>
</svg>
