<svg width="260" height="260" viewBox="0 0 260 260" fill="none" xmlns="http://www.w3.org/2000/svg">
<path fill-rule="evenodd" clip-rule="evenodd" d="M192.329 138.8V208.371H230.5V122.149C230.5 110.473 220.629 100.593 208.964 100.593H198.196V68.2596C198.196 30.9863 167.239 0 130 0C92.3125 0 61.8036 30.9863 61.8036 68.2596V100.593H51.0357C38.9219 100.593 29.5 110.473 29.5 122.149V208.371H67.6714V138.8H192.329ZM162.304 100.593H97.6964V68.2596C97.6964 66.2607 97.8834 64.2969 98.2415 62.3863C101.02 47.5559 114.102 35.9261 130 35.9261C145.501 35.9261 158.889 47.5559 161.743 62.3863C162.111 64.2969 162.304 66.2607 162.304 68.2596V100.593Z" fill="#343339"/>
<path d="M67.6714 208.371H29.5V238.444C29.5 250.569 38.9219 260 51.0357 260H208.964C220.629 260 230.5 250.569 230.5 238.444V208.371H192.329V221.793H67.6714V208.371Z" fill="#343339"/>
<path d="M156.738 178.78C156.738 192.847 145.345 204.251 131.291 204.251C117.236 204.251 105.843 192.847 105.843 178.78C105.843 164.713 117.236 153.309 131.291 153.309C145.345 153.309 156.738 164.713 156.738 178.78Z" fill="#343339"/>
</svg>
