<svg width="260" height="260" viewBox="0 0 260 260" fill="none" xmlns="http://www.w3.org/2000/svg">
<path d="M164.717 52.7096C163.197 51.6959 162.183 50.6823 162.183 48.655C162.183 47.1345 163.197 46.1209 164.717 45.1072L195.127 32.4366L207.29 2.53411C208.304 1.01365 209.318 0 210.838 0C212.865 0 213.879 1.01365 214.893 2.53411L227.563 32.4366L257.466 45.1072C258.986 46.1209 260 47.1345 260 48.655C260 50.6823 258.986 51.6959 257.466 52.7096L227.563 64.8733L214.893 95.2827C213.879 96.8031 212.865 97.8168 211.345 97.8168C209.318 97.8168 208.304 96.8031 207.29 95.2827L195.127 64.8733L164.717 52.7096ZM257.466 207.29C258.986 208.304 260 209.318 260 210.838C260 212.865 258.986 213.879 257.466 214.893L227.563 227.057L214.893 257.466C213.879 258.986 212.865 260 211.345 260C209.318 260 208.304 258.986 207.29 257.466L195.127 227.057L164.717 214.893C163.197 213.879 162.183 212.865 162.183 211.345C162.183 209.318 163.197 208.304 164.717 207.29L195.127 194.62L207.29 164.717C208.304 163.197 209.318 162.183 210.838 162.183C212.865 162.183 213.879 163.197 214.893 164.717L227.563 194.62L257.466 207.29ZM195.127 129.747C195.127 132.788 193.099 135.828 190.565 136.842L133.294 165.731L104.912 223.002C103.392 225.536 100.858 227.057 97.8168 227.057C94.269 227.057 91.7349 225.536 90.2144 223.002L61.8324 165.731L4.5614 136.842C2.02729 135.828 0 132.788 0 129.747C0 126.706 2.02729 123.665 4.5614 122.651L61.8324 93.7622L90.2144 36.9981C93.2554 31.423 101.871 31.423 104.912 36.9981L133.294 93.7622L190.565 122.651C193.099 123.665 194.62 126.706 195.127 129.747Z" fill="#343339"/>
</svg>
