<?xml version="1.0" encoding="utf-8"?>
<!-- Generator: Adobe Illustrator 27.7.0, SVG Export Plug-In . SVG Version: 6.00 Build 0)  -->
<svg version="1.1" id="Layer_1" xmlns="http://www.w3.org/2000/svg" xmlns:xlink="http://www.w3.org/1999/xlink" x="0px" y="0px"
	 viewBox="0 0 50 50" style="enable-background:new 0 0 50 50;" xml:space="preserve">
<path d="M31.4,24c-0.1-0.1-0.2-0.1-0.4-0.2c-0.2-3.8-2.3-6-5.8-6c0,0,0,0,0,0c-2.1,0-3.9,0.9-4.9,2.5l1.9,1.3c0.8-1.2,2.1-1.5,3-1.5
	c0,0,0,0,0,0c1.2,0,2,0.3,2.6,1c0.4,0.5,0.7,1.1,0.8,2c-1-0.2-2.1-0.2-3.3-0.2c-3.3,0.2-5.5,2.1-5.3,4.8c0.1,1.4,0.8,2.6,1.9,3.3
	c1,0.7,2.3,1,3.6,0.9c1.7-0.1,3.1-0.8,4.1-2c0.7-0.9,1.2-2.1,1.4-3.6c0.8,0.5,1.5,1.2,1.8,2c0.6,1.4,0.6,3.6-1.2,5.4
	c-1.6,1.6-3.5,2.3-6.4,2.3c-3.2,0-5.6-1-7.2-3.1c-1.5-1.9-2.2-4.6-2.3-8c0-3.5,0.8-6.2,2.3-8c1.6-2,4-3,7.2-3.1
	c3.2,0,5.7,1.1,7.3,3.1c0.8,1,1.4,2.2,1.8,3.7l2.3-0.6c-0.5-1.8-1.2-3.3-2.3-4.6c-2.1-2.6-5.2-3.9-9.1-3.9h0c-3.9,0-7,1.4-9,3.9
	c-1.8,2.3-2.7,5.5-2.8,9.5l0,0l0,0c0,4,1,7.2,2.8,9.5c2,2.6,5.1,3.9,9,3.9h0c3.5,0,6-0.9,8-3c2.7-2.7,2.6-6,1.7-8
	C34.3,26,33.1,24.8,31.4,24z M25.4,29.7c-1.5,0.1-3-0.6-3.1-2c-0.1-1,0.7-2.2,3.2-2.3c0.3,0,0.5,0,0.8,0c0.9,0,1.7,0.1,2.4,0.2
	C28.5,29.1,26.8,29.6,25.4,29.7z"/>
</svg>
