<?xml-stylesheet type="text/css" href="../../../styles/pages/landing.css" ?>
<svg width="50" height="50" viewBox="0 0 50 50" xmlns="http://www.w3.org/2000/svg">
    <path d="M36.6951 19.2328C36.7137 19.4944 36.7137 19.756 36.7137 20.0175C36.7137 27.9945 30.6423 37.1859 19.5454 37.1859C16.1266 37.1859 12.9508 36.1957 10.2793 34.4771C10.765 34.5331 11.232 34.5518 11.7365 34.5518C14.5573 34.5518 17.1541 33.599 19.2278 31.9737C16.575 31.9177 14.3519 30.1803 13.5859 27.789C13.9596 27.845 14.3332 27.8824 14.7255 27.8824C15.2673 27.8824 15.8091 27.8077 16.3135 27.6769C13.5486 27.1165 11.4749 24.6879 11.4749 21.7549V21.6802C12.2781 22.1285 13.2123 22.4087 14.2024 22.4461C12.5771 21.3625 11.5122 19.5131 11.5122 17.4207C11.5122 16.2998 11.8111 15.2723 12.3342 14.3756C15.3046 18.0372 19.7695 20.4284 24.7761 20.69C24.6827 20.2416 24.6267 19.7746 24.6267 19.3076C24.6267 15.9822 27.3168 13.2734 30.6608 13.2734C32.3982 13.2734 33.9675 14.002 35.0697 15.179C36.4334 14.9174 37.7411 14.413 38.8994 13.7218C38.451 15.1229 37.4983 16.2999 36.2466 17.0471C37.461 16.9164 38.6379 16.5801 39.7214 16.1131C38.8995 17.3086 37.872 18.3734 36.6951 19.2328V19.2328Z"/>
</svg>
